
<svg version="1.1" id="Layer_1" xmlns="http://www.w3.org/2000/svg" xmlns:xlink="http://www.w3.org/1999/xlink" x="0px" y="0px"
	 viewBox="0 0 528.774 274" style="enable-background:new 0 0 528.774 274;" xml:space="preserve">
<defs>
	<style>

		#infinity-symbol {
			fill: #062259;
			stroke: #062259;
			stroke-width: 2;
			stroke-miterlimit: 5;
			stroke-linecap: round;
			stroke-linejoin: round;
			stroke-dasharray: 2700;
			stroke-dashoffset: 0;
			-webkit-animation: drawing 4s linear forwards;
			-moz-animation: drawing 4s linear forwards;
			-o-animation: drawing 4s linear forwards;
			animation: drawing 4s linear forwards;
			<!-- @media screen and (-ms-high-contrast: active), (-ms-high-contrast: none) {
               animation: none;
            } -->
		}

		@-webkit-keyframes drawing {
			0% {
				stroke-dasharray: 2700;
				stroke-dashoffset: 2700;
				fill: transparent;
			}
			99%{
				fill: transparent;
			}
			100% {
				stroke-dasharray: 0;
				stroke-dashoffset: 0;
				fill: #062259;
			}
		}
	</style>
</defs>
<g>
	<path id="infinity-symbol" d="M147.806,264c-7.333,0-7.53,0-14.863,0c-2.395,0-9.155-0.78-10.411-0.958c-52.245-6.039-94.61-41.881-108.785-92.402
		c-2.223-7.924-4.167-14.027-4.941-24.254c-0.581-12.129,0.851-22.425,0.983-23.7c5.477-52.82,44.344-97.384,96.052-109.926
		c6.584-1.597,15.384-3.47,22.739-3.921c7.333,0,7.828,0,15.161,0c7.871-0.054,12.863,1.417,17.237,2.259
		c36.717,7.068,64.075,27.992,85.425,57.646c0.778,1.081,0.472,3.779-0.365,5.04c-6.888,10.378-14.012,20.6-21.087,30.854
		c-1.82,2.637-3.721,5.219-5.591,7.836c-7.619-9.513-14.604-18.818-22.197-27.601c-21.666-25.062-55.607-34.017-86.594-23.185
		c-30.851,10.785-51.581,38.763-53.012,71.55c-1.45,33.195,18.055,63.645,48.923,76.38c30.93,12.76,67.266,5.366,88.906-19.995
		c15.06-17.65,28.264-36.899,41.943-55.689c18.665-25.641,36.424-51.957,55.645-77.171c15.798-20.723,36.992-34.736,62.161-42.134
		c8.704-2.558,17.187-4.209,26.67-5.79c7.333,0,8.699,0,16.032,0c3.871-0.001,6.954,0.58,9.735,1.002
		c52.109,7.685,87.596,36.175,105.959,85.235c3.842,10.264,6.919,23.504,7.273,35.795c0,6.313-0.861,18.003-0.987,19.277
		c-5.019,50.624-42.086,94.941-91.225,108.652c-8.113,2.264-18.924,4.386-28.602,5.2c-7.333,0-6.207,0-13.54,0
		c-8.323,0-17.066-2.027-23.182-3.445c-34.364-7.964-59.878-28.537-80.098-56.439c-0.772-1.066-0.422-3.768,0.42-5.039
		c7.436-11.212,15.098-22.276,22.704-33.376c1.25-1.825,2.552-3.614,3.964-5.61c5.787,7.476,11.159,14.442,16.559,21.387
		c17.89,23.008,40.946,35.211,70.648,34.014c45.529-1.835,81.73-45.895,73.847-90.686c-5.791-32.907-24.783-55.318-57.143-64.355
		c-32.762-9.149-60.966,0.306-82.994,26.015c-10.791,12.594-20.453,26.189-30.111,39.697c-19.802,27.697-38.876,55.919-58.971,83.4
		c-17.108,23.396-39.352,39.662-67.613,48.654C165.834,260.969,157.419,262.903,147.806,264z"/>
</g>
</svg>
