<svg version="1.0" xmlns="http://www.w3.org/2000/svg" viewBox="0 0 451.000000 448.000000"
 preserveAspectRatio="xMidYMid meet">

 <defs>
    <style>

        #infinity-symbol {
            fill: #062259;
            stroke: #062259;
            stroke-width: 2;
            stroke-miterlimit: 5;
            stroke-linecap: round;
            stroke-linejoin: round;
            stroke-dasharray: 2700;
            stroke-dashoffset: 0;
            -webkit-animation: drawing .5s linear forwards;
            -moz-animation: drawing .5s linear forwards;
            -o-animation: drawing .5s linear forwards;
            animation: drawing .5s linear forwards;
            <!-- @media screen and (-ms-high-contrast: active), (-ms-high-contrast: none) {
               animation: none;
            } -->
        }

        @-webkit-keyframes drawing {
            0% {
                stroke-dasharray: 2700;
                stroke-dashoffset: 2700;
                fill: transparent;
            }
            99%{
                fill: transparent;
            }
            100% {
                stroke-dasharray: 0;
                stroke-dashoffset: 0;
                fill: #062259;
            }
        }
    </style>
</defs>

<g id="infinity-symbol" transform="translate(0.000000,448.000000) scale(0.100000,-0.100000)"
fill="#000000" stroke="none">
<path d="M1488 4425 l4 -45 -161 0 -161 0 0 -30 0 -30 160 0 160 0 0 -35 c0
-33 2 -35 35 -35 33 0 35 2 35 35 l0 35 130 0 130 0 0 -35 c0 -33 2 -35 35
-35 33 0 35 2 35 35 l0 35 160 0 160 0 0 30 0 30 -161 0 -161 0 4 43 3 42 -43
3 -42 3 6 -45 7 -46 -133 0 -133 0 6 45 7 45 -43 0 -42 0 3 -45z"/>
<path d="M2809 4413 c0 -16 -10 -55 -23 -88 l-23 -60 -143 -3 c-141 -3 -142
-3 -136 -25 3 -12 6 -28 6 -34 0 -10 30 -13 115 -13 63 0 115 -3 115 -6 0 -21
-105 -158 -185 -242 l-95 -100 21 -26 c11 -14 26 -26 32 -26 7 0 48 36 92 80
113 116 221 164 287 129 18 -10 48 -64 48 -88 0 -5 -28 -25 -62 -44 -84 -47
-138 -90 -170 -138 -72 -107 -33 -229 85 -264 54 -16 328 -20 417 -7 42 7 45
9 43 37 -4 52 -2 52 -134 37 -273 -29 -398 12 -368 121 11 40 79 107 147 145
l42 23 0 -95 c0 -90 1 -96 21 -96 11 0 29 5 40 10 17 10 19 22 19 113 l0 103
143 56 c78 32 152 60 165 63 30 8 28 28 -7 67 l-29 32 -38 -26 c-31 -21 -227
-118 -239 -118 -2 0 -6 13 -10 30 -14 63 -77 110 -147 110 -29 -1 -63 -10
-122 -35 -14 -6 -7 8 21 46 22 30 48 68 58 84 17 30 19 31 156 48 174 22 173
22 165 60 -3 17 -7 32 -9 33 -1 1 -57 -7 -125 -18 -67 -11 -125 -18 -128 -15
-3 3 8 35 25 70 17 36 31 67 31 70 0 7 -60 27 -81 27 -14 0 -19 -8 -20 -27z"/>
<path d="M1300 4105 l0 -115 390 0 390 0 0 115 0 115 -390 0 -390 0 0 -115z
m230 0 l0 -55 -80 0 -80 0 0 55 0 55 80 0 80 0 0 -55z m240 0 l0 -55 -85 0
-85 0 0 55 0 55 85 0 85 0 0 -55z m240 0 l0 -55 -90 0 -90 0 0 55 0 55 90 0
90 0 0 -55z"/>
<path d="M1200 3830 l0 -100 35 0 34 0 3 68 3 67 158 3 158 3 -15 -23 c-32
-46 -133 -120 -224 -165 l-94 -46 25 -25 25 -24 53 24 c30 14 85 46 123 72
l69 46 160 0 161 0 -39 -41 c-22 -22 -61 -56 -88 -76 l-47 -35 -48 30 c-26 17
-64 38 -85 48 -36 17 -38 17 -57 -2 -20 -20 -20 -20 46 -63 39 -24 63 -46 58
-51 -16 -16 -158 -59 -251 -76 l-92 -16 22 -30 c21 -28 25 -29 70 -24 135 18
335 98 434 173 60 45 183 161 183 172 0 4 -9 16 -20 26 -18 17 -37 18 -187 16
l-166 -3 38 46 37 46 209 0 209 0 0 -70 0 -70 40 0 40 0 0 100 0 100 -490 0
-490 0 0 -100z"/>
<path d="M1213 3081 c-238 -38 -469 -184 -603 -381 -309 -455 -148 -1073 343
-1315 144 -71 224 -88 402 -88 134 0 159 3 240 27 50 15 128 48 175 72 184 97
284 207 582 644 309 450 387 547 500 620 163 106 363 116 547 28 91 -43 206
-159 250 -251 108 -226 68 -462 -108 -638 -154 -154 -356 -204 -562 -140 -125
39 -222 118 -341 276 -33 44 -63 81 -67 82 -3 1 -50 -63 -104 -143 -113 -167
-113 -140 -7 -262 116 -135 271 -235 445 -288 82 -25 104 -28 245 -27 139 0
164 3 243 27 317 95 545 331 629 646 29 110 31 318 5 423 -83 331 -328 581
-657 669 -71 19 -109 23 -230 22 -127 -1 -156 -4 -235 -28 -191 -58 -339 -159
-477 -328 -47 -56 -170 -227 -273 -378 -213 -311 -332 -473 -399 -543 -172
-179 -435 -225 -658 -115 -89 44 -205 162 -247 251 -108 226 -68 462 108 638
154 154 357 204 562 140 125 -39 222 -118 341 -276 33 -44 63 -81 67 -82 3 -1
50 63 104 143 113 167 113 140 7 262 -117 136 -274 237 -445 287 -99 29 -284
41 -382 26z"/>
<path d="M2666 953 c-4 -21 -14 -71 -23 -112 -21 -89 -24 -91 -175 -91 -110 0
-110 0 -104 -22 3 -13 6 -29 6 -35 0 -10 29 -13 111 -13 l111 0 -7 -27 c-11
-44 -122 -271 -170 -349 -25 -40 -45 -76 -45 -80 0 -5 12 -18 27 -28 19 -14
30 -16 42 -9 22 14 151 265 202 393 23 58 43 106 44 108 1 1 42 9 91 18 126
21 121 19 116 59 -2 19 -7 35 -11 35 -3 0 -42 -7 -85 -15 -44 -8 -81 -13 -84
-11 -4 4 11 51 54 177 4 11 -5 19 -34 27 -56 17 -59 16 -66 -25z"/>
<path d="M4104 963 c-9 -15 -102 -114 -206 -219 -103 -106 -192 -204 -198
-219 -19 -49 -3 -71 130 -180 71 -57 182 -156 248 -220 66 -63 124 -115 129
-115 5 0 22 14 38 30 l29 30 -59 56 c-91 85 -239 212 -342 293 -51 40 -93 76
-93 80 0 9 330 335 390 385 l45 38 -40 34 c-22 18 -43 34 -46 34 -4 0 -15 -12
-25 -27z"/>
<path d="M62 847 c-6 -45 -21 -138 -32 -207 -31 -202 -25 -400 17 -552 12 -45
20 -58 35 -58 35 0 57 19 56 47 0 16 18 74 42 131 38 93 41 106 30 133 -7 16
-16 29 -20 29 -4 0 -24 -40 -46 -90 -21 -49 -42 -86 -46 -82 -16 16 -21 208
-8 322 13 124 54 318 70 334 17 17 11 35 -17 49 -68 35 -67 35 -81 -56z"/>
<path d="M4333 835 c-20 -14 -20 -15 31 -67 29 -29 62 -66 73 -83 21 -29 21
-30 42 -11 12 11 21 25 21 33 0 14 -124 143 -138 143 -4 0 -17 -7 -29 -15z"/>
<path d="M490 805 c-8 -2 -36 -7 -62 -10 l-48 -6 0 -41 c0 -40 0 -40 33 -34
17 4 121 10 230 13 l198 5 -3 37 -3 36 -165 1 c-91 1 -172 0 -180 -1z"/>
<path d="M1630 794 c-47 -9 -164 -42 -260 -74 -96 -32 -190 -61 -207 -65 -18
-4 -33 -9 -33 -11 0 -8 60 -94 66 -94 2 0 28 13 57 29 66 37 248 105 351 131
101 26 216 26 271 1 85 -38 133 -128 120 -225 -8 -66 -34 -114 -88 -163 -72
-66 -171 -108 -326 -137 -47 -9 -86 -17 -87 -19 -1 -1 11 -17 27 -35 34 -38
48 -39 155 -12 166 42 299 115 353 193 42 61 65 155 57 230 -21 206 -191 299
-456 251z"/>
<path d="M3036 752 c-19 -36 -19 -42 -6 -42 24 0 124 -45 180 -81 49 -32 65
-38 72 -27 22 33 29 51 25 62 -7 16 -181 103 -224 112 -28 5 -33 3 -47 -24z"/>
<path d="M4227 753 c-15 -16 -13 -21 41 -77 32 -34 63 -70 69 -81 10 -17 14
-18 37 -5 14 7 26 18 26 23 0 16 -76 111 -109 135 -36 26 -42 27 -64 5z"/>
<path d="M2945 533 c2 -38 7 -107 10 -155 l5 -87 -77 5 c-102 8 -156 -7 -205
-56 -34 -34 -38 -43 -38 -88 0 -40 5 -57 27 -83 37 -44 80 -59 165 -59 123 1
187 45 203 142 l7 39 56 -32 c32 -17 74 -45 95 -62 37 -28 39 -29 52 -11 42
56 33 67 -113 140 -51 26 -95 51 -98 56 -3 5 -7 75 -9 156 -3 144 -3 147 -27
153 -57 17 -59 15 -53 -58z m-16 -309 c28 -6 31 -10 31 -43 0 -20 -7 -47 -16
-60 -32 -45 -115 -63 -183 -40 -36 13 -51 35 -51 78 0 45 46 71 126 71 34 0
76 -3 93 -6z"/>
<path d="M340 295 c0 -20 9 -53 20 -74 44 -87 113 -111 316 -111 78 0 156 3
173 6 28 6 31 10 31 44 l0 37 -163 -5 c-180 -5 -222 2 -269 46 -15 14 -31 40
-34 59 -6 30 -10 33 -40 33 -32 0 -34 -2 -34 -35z"/>
</g>
</svg>
