<?xml version="1.0" encoding="utf-8"?>
<!-- Generator: Adobe Illustrator 24.1.2, SVG Export Plug-In . SVG Version: 6.00 Build 0)  -->
<svg version="1.1" id="Layer_1" xmlns="http://www.w3.org/2000/svg" xmlns:xlink="http://www.w3.org/1999/xlink" x="0px" y="0px"
	 viewBox="0 0 451 447.996" style="enable-background:new 0 0 451 447.996;" xml:space="preserve">
<style type="text/css">
	.st0{fill:#FFFFFF;}
</style>
<g>
	<path class="st0" d="M451,447.996C300.69,448,150.38,448,0,448C0,298.716,0,149.425,0,0c150.286,0,300.643,0,451,0
		C451,149.315,451,298.653,451,447.996z M236.613,275.378c3.886,4.654,7.483,9.229,11.356,13.558
		c26.98,30.162,70.51,38.532,106.877,20.621c36.072-17.766,56.362-57.933,48.234-97.513c-7.354-35.809-29.131-59.724-64.244-69.505
		c-34.956-9.737-66.044-0.642-90.366,26.312c-12.763,14.144-23.007,30.567-34.332,46.003
		c-12.704,17.317-24.592,35.301-38.216,51.858c-14.507,17.632-39.795,22.739-61.17,14.368
		c-21.482-8.412-35.781-29.191-35.744-51.942c0.038-23.283,14.3-44.127,35.833-52.369c22.024-8.43,46.384-2.614,61.984,15.096
		c5.582,6.337,10.641,13.135,16.269,20.132c6.765-9.867,13.405-19.551,20.251-29.536c-4.264-5.034-8.176-10.011-12.457-14.647
		c-27.341-29.606-70.745-37.283-106.737-18.982C58.54,166.941,38.74,206.729,46.84,245.896
		c7.357,35.574,28.907,59.509,63.798,69.344c35.098,9.894,66.211,0.758,90.875-26.206c10.957-11.978,19.85-25.867,29.472-39.041
		c14.044-19.228,26.992-39.341,42.095-57.687c14.73-17.893,34.913-23.223,57.39-17.027c28.197,7.772,45.537,37.113,39.177,65.415
		c-6.546,29.131-33.896,47.978-63.08,43.56c-16.667-2.523-29.105-11.59-39.018-24.733c-3.447-4.57-7.014-9.048-10.713-13.808
		C249.997,255.746,243.528,265.235,236.613,275.378z M292.075,84.09c7.123,0.838,7.575,0.459,7.591-5.83
		c0.009-3.665,0.267-7.355-0.071-10.989c-0.356-3.824,1.183-5.596,4.693-6.894c9.602-3.552,19.063-7.487,29.44-11.612
		c-2.205-2.941-4.187-5.585-5.754-7.676c-9.958,4.965-19.1,9.524-28.674,14.298c-1.338-6.996-3.661-12.947-10.768-13.506
		c-5.776-0.455-11.687,0.81-16.981,1.265c2.394-3.661,5.17-8.198,8.285-12.488c0.931-1.282,2.72-2.436,4.272-2.687
		c7.386-1.195,14.833-2.006,22.244-3.054c6.336-0.896,6.506-1.288,4.067-7.686c-8.355,1.303-16.741,2.612-26.238,4.093
		c2.705-5.657,4.817-10.076,7.253-15.172c-3.437-0.945-6.461-1.777-9.232-2.538c-1.543,4.909-3.012,8.968-4.072,13.131
		c-1.028,4.039-3.149,5.56-7.442,5.343c-7.371-0.373-14.775-0.103-22.597-0.103c0.526,2.783,0.885,4.679,1.353,7.155
		c7.522,0,14.857,0,23.655,0c-5.072,6.826-9.045,12.759-13.627,18.177c-4.704,5.562-10.003,10.62-15.413,16.289
		c1.8,1.922,3.518,3.756,5.61,5.989c1.571-1.742,2.578-3.065,3.788-4.165c5.286-4.802,10.184-10.228,16.107-14.06
		c4.064-2.63,9.518-3.744,14.47-4.177c4.275-0.374,6.388,3.168,7.393,7.39c0.988,4.154-2.254,4.457-4.388,6.054
		c-6.077,4.549-13.063,8.399-17.819,14.089c-8.768,10.49-3.743,23.657,9.415,27.074c2.082,0.541,4.253,1.078,6.377,1.056
		c10.808-0.114,21.629-0.13,32.414-0.745c7.191-0.409,7.587-1.642,4.474-8.622c-7.095,0.641-14.206,1.741-21.326,1.799
		c-7.257,0.059-14.668-0.192-21.74-1.638c-6.153-1.258-8.097-6.905-5.251-12.606c3.77-7.554,10.885-11.024,18.492-15.252
		C292.075,72.538,292.075,78.163,292.075,84.09z M162.154,92.895c0.012,0.608,0.024,1.215,0.036,1.823
		c-11.389,3.014-22.779,6.028-34.097,9.022c1.419,4.57,4.254,5.469,9.361,4.566c24.193-4.277,44.543-15.067,60.388-34.537
		c-1.642-2.685-3.462-4.795-8.187-4.426c-9.177,0.716-18.449,0.209-28.098,0.209c3.371-6.435,7.397-10.005,14.487-8.862
		c3.247,0.524,6.648,0.089,9.98,0.089c7.941,0,15.882,0,24.458,0c0,5.006,0,9.391,0,13.823c2.737,0,4.822,0,6.952,0
		c0-6.693,0-13.071,0-19.366c-32.606,0-64.826,0-97.102,0c0,6.633,0,12.888,0,19.321c2.325,0,4.367,0,7.012,0
		c0-4.593,0-8.842,0-13.251c10.771,0,20.929,0,31.875,0c-9.084,11.247-20.617,17.521-32.841,22.463
		c2.399,5.347,5.665,5.466,9.769,2.819c2.508-1.618,5.617-2.465,7.798-4.4c7.557-6.706,16.388-7.799,25.944-7.084
		c5.344,0.4,10.743,0.072,16.118,0.072c-2.474,3.836-5.144,6.541-8.064,8.942c-7.492,6.158-7.533,6.098-15.881,1.073
		c-1.426-0.858-2.977-1.525-4.337-2.472c-3.519-2.449-6.344-2.18-8.521,1.937C153.552,87.422,157.853,90.159,162.154,92.895z
		 M112.312,382.866c2.157,3.286,3.423,5.885,5.341,7.847c0.918,0.939,3.344,1.355,4.618,0.841
		c8.919-3.593,17.587-7.835,26.587-11.197c9.511-3.554,19.306-6.239,29.686-5.684c11.289,0.603,19.5,7.493,20.988,18.327
		c1.267,9.233-1.837,17.067-8.909,23.177c-7.372,6.369-16.285,9.56-25.55,11.853c-5.015,1.241-10.117,2.133-15.18,3.183
		c-0.165,0.486-0.329,0.971-0.494,1.457c2.898,1.76,6.038,5.329,8.653,4.978c14.452-1.937,28.445-5.903,39.827-15.644
		c10.242-8.765,12.71-20.383,9.954-33.12c-2.375-10.977-9.63-17.846-20.404-20.217c-5.573-1.226-11.823-2.031-17.251-0.783
		C151.01,372.291,132.065,377.667,112.312,382.866z M130.267,26.358c0,7.601,0,14.679,0,21.805c26.026,0,51.709,0,77.367,0
		c0-7.493,0-14.57,0-21.805C181.722,26.358,156.154,26.358,130.267,26.358z M413.086,349.003c-4.44,4.89-8.255,9.27-12.262,13.467
		c-9.429,9.877-19.103,19.523-28.368,29.55c-4.763,5.154-4.086,9.175,1.03,13.712c14.812,13.137,29.604,26.296,44.288,39.576
		c2.032,1.838,3.497,2.288,5.36,0.171c1.18-1.34,2.358-2.681,3.783-4.302c-1.624-1.697-2.87-3.248-4.358-4.515
		c-13.683-11.656-27.338-23.346-41.173-34.818c-3.053-2.532-4.095-4.293-0.788-7.413c5.57-5.255,10.744-10.927,16.27-16.231
		c7.861-7.545,15.891-14.914,24.236-22.721C418.351,353.256,415.683,351.1,413.086,349.003z M295.787,419.123
		c-1.998-0.278-3.578-0.56-5.17-0.71c-6.503-0.614-12.981-0.872-18.99,2.385c-5.059,2.741-8.115,6.727-7.911,12.786
		c0.198,5.882,3.478,9.616,8.504,11.845c6.52,2.893,13.333,2.448,20.039,0.675c8.382-2.217,11.077-8.776,11.778-17.601
		c6.823,4.255,12.96,8.081,19.545,12.188c1.214-2.259,2.418-4.5,4.041-7.52c-7.225-3.759-14.024-7.165-20.667-10.853
		c-1.517-0.842-3.473-2.602-3.556-4.036c-0.488-8.423-0.378-16.878-0.745-25.311c-0.058-1.324-1.235-3.135-2.404-3.745
		c-1.633-0.853-3.745-0.789-6.071-1.19C294.723,398.548,295.242,408.578,295.787,419.123z M243.371,430.658
		c1.382-2.15,2.6-3.717,3.473-5.457c5.293-10.546,11.673-20.737,15.42-31.815c3.741-11.062,9.362-16.994,21.364-17.347
		c6.641-0.195,6.702-1.272,4.435-7.927c-5.565,0.93-11.158,1.864-17.666,2.951c2.3-7.033,4.242-12.972,6.416-19.621
		c-3.021-0.857-6.196-1.757-9.409-2.669c-1.382,6.551-2.842,12.347-3.767,18.228c-0.677,4.308-3.023,5.855-7.035,5.833
		c-6.62-0.036-13.24-0.01-19.827-0.01c-0.248,7.247-0.134,7.404,5.774,7.439c5.438,0.032,10.877,0.007,16.887,0.007
		c-5.649,16.156-13.568,30.845-22.916,45.355C238.851,427.339,240.904,428.846,243.371,430.658z M181.523,16.156
		c0.199,2.478,0.353,4.404,0.509,6.342c2.408,0,4.455,0,6.487,0c0.184-2.31,0.337-4.23,0.529-6.643c10.735,0,21.165,0,31.76,0
		c0-2.227,0-3.92,0-5.989c-10.834,0-21.275,0-32.148,0c0.192-2.979,0.358-5.55,0.558-8.654c-2.704-0.129-5.215-0.249-7.683-0.367
		c0,3.308,0,6.035,0,8.802c-8.762,0-17.176,0-25.947,0c0.371-2.939,0.695-5.507,1.076-8.531c-2.816,0-5.356,0-8.101,0
		c0,2.991,0,5.731,0,8.875c-10.619,0-20.884,0-31.264,0c0,2.13,0,3.834,0,6.061c10.605,0,20.861,0,31.229,0
		c0.312,2.569,0.562,4.628,0.787,6.485c2.389,0,4.305,0,6.321,0c0.169-2.277,0.313-4.211,0.475-6.38
		C164.626,16.156,172.886,16.156,181.523,16.156z M10.535,428.442c-0.496-0.054-0.992-0.108-1.488-0.162
		c-0.364-6.375-1.097-12.755-1.02-19.124c0.187-15.381,2.192-30.618,7.312-45.115c1.627-4.608,0.636-5.94-3.015-7.263
		c-1.504-0.545-3.044-0.994-4.772-1.553c-0.424,3.083-0.676,5.724-1.161,8.321c-3.307,17.684-6.767,35.403-5.278,53.493
		c0.691,8.397,2.677,16.701,4.364,24.989c0.226,1.109,2.247,2.724,3.262,2.606c1.682-0.197,4.162-1.254,4.664-2.573
		c2.747-7.225,4.705-14.755,7.527-21.947c1.558-3.97,0.496-6.397-2.506-8.979C15.692,417.129,13.114,422.786,10.535,428.442z
		 M40.13,414.961c-2.072,0.296-4.198,0.6-6.229,0.89c0.228,10.147,4.104,16.405,12.453,19.058
		c13.637,4.334,27.478,2.276,41.244,1.125c0-2.98,0-5.232,0-7.975c-2.299,0.12-4.238,0.247-6.179,0.317
		c-7.963,0.286-15.938,0.955-23.887,0.729C47.152,428.81,42.965,425.155,40.13,414.961z M38.428,376.112
		c14.89-0.547,29.7-1.092,44.546-1.638c1.488-6.541,1.035-7.458-5.311-7.373c-11.095,0.148-22.197,0.474-33.274,1.103
		C37.503,368.596,37.129,369.472,38.428,376.112z M327.345,388.17c4.949-5.649,4.971-6.35-1.563-9.938
		c-4.648-2.552-9.493-4.805-14.415-6.78c-6.315-2.534-6.67-2.211-8.856,4.189C310.667,379.756,318.779,383.849,327.345,388.17z
		 M421.505,374.104c4.745,5.421,9.312,10.638,14.214,16.238c1.411-1.141,2.889-2.337,5.065-4.097
		c-3.96-4.371-7.66-8.358-11.247-12.444C426.619,370.478,423.993,370.736,421.505,374.104z M431.969,366.096
		c4.705,5.222,9.322,10.346,13.952,15.484c5.075-3.318,5.193-3.508,1.338-7.933c-2.496-2.865-5.414-5.356-7.996-8.152
		C436.292,362.278,433.963,363.027,431.969,366.096z"/>
	<path d="M236.613,275.378c6.915-10.143,13.384-19.632,20.223-29.664c3.698,4.759,7.266,9.238,10.713,13.808
		c9.913,13.143,22.352,22.21,39.018,24.733c29.183,4.417,56.533-14.43,63.08-43.56c6.36-28.303-10.98-57.644-39.177-65.415
		c-22.477-6.195-42.66-0.866-57.39,17.027c-15.103,18.346-28.051,38.459-42.095,57.687c-9.622,13.174-18.515,27.062-29.472,39.041
		c-24.664,26.964-55.778,36.1-90.875,26.206c-34.891-9.836-56.441-33.771-63.798-69.344c-8.1-39.167,11.7-78.955,47.312-97.062
		c35.992-18.301,79.396-10.624,106.737,18.982c4.281,4.636,8.193,9.614,12.457,14.647c-6.846,9.984-13.486,19.669-20.251,29.536
		c-5.627-6.997-10.687-13.795-16.269-20.132c-15.6-17.71-39.96-23.526-61.984-15.096c-21.533,8.242-35.794,29.086-35.833,52.369
		c-0.037,22.751,14.262,43.53,35.744,51.942c21.375,8.371,46.662,3.264,61.17-14.368c13.623-16.558,25.511-34.541,38.216-51.858
		c11.324-15.436,21.569-31.859,34.332-46.003c24.322-26.954,55.41-36.049,90.366-26.312c35.113,9.78,56.89,33.696,64.244,69.505
		c8.129,39.579-12.161,79.746-48.234,97.513c-36.367,17.911-79.898,9.541-106.877-20.621
		C244.097,284.607,240.499,280.032,236.613,275.378z"/>
	<path d="M292.075,84.09c0-5.926,0-11.551,0-18.3c-7.608,4.228-14.722,7.698-18.492,15.252c-2.846,5.701-0.902,11.348,5.251,12.606
		c7.072,1.446,14.483,1.697,21.74,1.638c7.12-0.058,14.231-1.158,21.326-1.799c3.113,6.98,2.717,8.213-4.474,8.622
		c-10.785,0.614-21.606,0.631-32.414,0.745c-2.124,0.022-4.296-0.515-6.377-1.056c-13.158-3.417-18.183-16.583-9.415-27.074
		c4.756-5.69,11.742-9.539,17.819-14.089c2.133-1.597,5.376-1.899,4.388-6.054c-1.004-4.223-3.118-7.765-7.393-7.39
		c-4.952,0.433-10.406,1.547-14.47,4.177c-5.923,3.833-10.822,9.259-16.107,14.06c-1.211,1.1-2.218,2.423-3.788,4.165
		c-2.092-2.233-3.81-4.067-5.61-5.989c5.411-5.669,10.709-10.727,15.413-16.289c4.582-5.418,8.555-11.351,13.627-18.177
		c-8.798,0-16.133,0-23.655,0c-0.468-2.476-0.827-4.372-1.353-7.155c7.822,0,15.226-0.27,22.597,0.103
		c4.292,0.217,6.414-1.304,7.442-5.343c1.06-4.163,2.529-8.222,4.072-13.131c2.771,0.762,5.795,1.593,9.232,2.538
		c-2.436,5.096-4.549,9.514-7.253,15.172c9.497-1.481,17.883-2.79,26.238-4.093c2.439,6.398,2.269,6.79-4.067,7.686
		c-7.411,1.048-14.858,1.86-22.244,3.054c-1.552,0.251-3.341,1.405-4.272,2.687c-3.115,4.29-5.891,8.827-8.285,12.488
		c5.294-0.454,11.205-1.72,16.981-1.265c7.108,0.56,9.431,6.51,10.768,13.506c9.574-4.774,18.716-9.333,28.674-14.298
		c1.567,2.091,3.549,4.735,5.754,7.676c-10.377,4.125-19.837,8.06-29.44,11.612c-3.511,1.299-5.049,3.071-4.693,6.894
		c0.338,3.634,0.08,7.324,0.071,10.989C299.65,84.549,299.198,84.928,292.075,84.09z"/>
	<path d="M162.154,92.895c-4.301-2.737-8.602-5.473-12.95-8.24c2.177-4.117,5.002-4.385,8.521-1.937
		c1.36,0.947,2.911,1.614,4.337,2.472c8.348,5.025,8.389,5.085,15.881-1.073c2.92-2.401,5.59-5.106,8.064-8.942
		c-5.374,0-10.773,0.328-16.118-0.072c-9.556-0.716-18.387,0.377-25.944,7.084c-2.181,1.935-5.29,2.783-7.798,4.4
		c-4.104,2.647-7.37,2.528-9.769-2.819c12.225-4.942,23.758-11.216,32.841-22.463c-10.946,0-21.104,0-31.875,0
		c0,4.409,0,8.658,0,13.251c-2.645,0-4.687,0-7.012,0c0-6.433,0-12.688,0-19.321c32.276,0,64.496,0,97.102,0
		c0,6.296,0,12.673,0,19.366c-2.13,0-4.215,0-6.952,0c0-4.432,0-8.816,0-13.823c-8.576,0-16.517,0-24.458,0
		c-3.331,0-6.733,0.434-9.98-0.089c-7.09-1.143-11.116,2.427-14.487,8.862c9.649,0,18.921,0.506,28.098-0.209
		c4.725-0.368,6.546,1.741,8.187,4.426c-15.845,19.47-36.195,30.26-60.388,34.537c-5.107,0.903-7.942,0.004-9.361-4.566
		c11.318-2.995,22.708-6.009,34.097-9.022C162.178,94.11,162.166,93.503,162.154,92.895z"/>
	<path d="M112.312,382.866c19.753-5.199,38.697-10.575,57.865-14.982c5.428-1.248,11.678-0.443,17.251,0.783
		c10.774,2.371,18.029,9.24,20.404,20.217c2.756,12.737,0.288,24.354-9.954,33.12c-11.382,9.741-25.375,13.707-39.827,15.644
		c-2.615,0.35-5.755-3.219-8.653-4.978c0.165-0.486,0.329-0.971,0.494-1.457c5.063-1.049,10.165-1.941,15.18-3.183
		c9.265-2.293,18.178-5.484,25.55-11.853c7.072-6.11,10.177-13.944,8.909-23.177c-1.487-10.834-9.699-17.724-20.988-18.327
		c-10.38-0.554-20.175,2.131-29.686,5.684c-8.999,3.363-17.667,7.604-26.587,11.197c-1.274,0.513-3.7,0.098-4.618-0.841
		C115.735,388.75,114.469,386.152,112.312,382.866z"/>
	<path d="M130.267,26.358c25.887,0,51.455,0,77.367,0c0,7.235,0,14.312,0,21.805c-25.658,0-51.341,0-77.367,0
		C130.267,41.037,130.267,33.959,130.267,26.358z M183.617,31.81c0,3.732,0,7.261,0,10.79c5.893,0,11.425,0,16.963,0
		c0-3.781,0-7.169,0-10.79C194.971,31.81,189.713,31.81,183.617,31.81z M176.339,31.932c-5.716,0-10.914,0-16.228,0
		c0,3.761,0,7.156,0,10.801c5.474,0,10.684,0,16.228,0C176.339,39.122,176.339,35.731,176.339,31.932z M137.114,42.647
		c5.509,0,10.556,0,15.666,0c0-3.748,0-7.152,0-11.078c-3.536,0-6.808,0-10.081,0c-1.774,0-3.548,0-5.586,0
		C137.114,35.517,137.114,38.92,137.114,42.647z"/>
	<path d="M413.086,349.003c2.597,2.097,5.265,4.253,8.018,6.476c-8.345,7.807-16.375,15.177-24.236,22.721
		c-5.526,5.303-10.7,10.976-16.27,16.231c-3.307,3.12-2.265,4.881,0.788,7.413c13.835,11.473,27.49,23.163,41.173,34.818
		c1.488,1.267,2.734,2.818,4.358,4.515c-1.425,1.621-2.604,2.962-3.783,4.302c-1.863,2.117-3.328,1.667-5.36-0.171
		c-14.684-13.279-29.476-26.439-44.288-39.576c-5.116-4.537-5.793-8.559-1.03-13.712c9.265-10.026,18.94-19.673,28.368-29.55
		C404.83,358.273,408.646,353.893,413.086,349.003z"/>
	<path d="M295.787,419.123c-0.545-10.545-1.064-20.575-1.608-31.087c2.326,0.401,4.438,0.337,6.071,1.19
		c1.169,0.611,2.346,2.421,2.404,3.745c0.367,8.433,0.258,16.888,0.745,25.311c0.083,1.434,2.039,3.194,3.556,4.036
		c6.643,3.688,13.442,7.094,20.667,10.853c-1.623,3.02-2.827,5.26-4.041,7.52c-6.585-4.107-12.722-7.933-19.545-12.188
		c-0.701,8.825-3.396,15.384-11.778,17.601c-6.706,1.774-13.518,2.218-20.039-0.675c-5.026-2.23-8.306-5.963-8.504-11.845
		c-0.204-6.059,2.852-10.045,7.911-12.786c6.009-3.256,12.487-2.998,18.99-2.385C292.21,418.563,293.789,418.844,295.787,419.123z
		 M280.831,440.972c10.265,0.058,15.545-4.195,15.332-11.358c-0.036-1.222-0.895-3.243-1.767-3.486
		c-6.463-1.801-13.207-2.872-19.355,0.437c-2.093,1.127-4.182,4.68-4,6.942c0.184,2.29,2.87,4.778,5.049,6.374
		C277.653,441.026,280.185,440.846,280.831,440.972z"/>
	<path d="M243.371,430.658c-2.467-1.812-4.52-3.319-6.852-5.032c9.349-14.51,17.268-29.2,22.916-45.355
		c-6.01,0-11.449,0.025-16.887-0.007c-5.908-0.035-6.023-0.191-5.774-7.439c6.587,0,13.207-0.026,19.827,0.01
		c4.013,0.022,6.358-1.525,7.035-5.833c0.924-5.881,2.385-11.677,3.767-18.228c3.213,0.911,6.388,1.812,9.409,2.669
		c-2.174,6.649-4.116,12.588-6.416,19.621c6.509-1.087,12.102-2.022,17.666-2.951c2.267,6.655,2.206,7.731-4.435,7.927
		c-12.001,0.353-17.622,6.285-21.364,17.347c-3.747,11.078-10.127,21.269-15.42,31.815
		C245.97,426.941,244.753,428.508,243.371,430.658z"/>
	<path d="M181.523,16.156c-8.637,0-16.897,0-25.414,0c-0.161,2.169-0.305,4.103-0.475,6.38c-2.016,0-3.932,0-6.321,0
		c-0.225-1.857-0.475-3.916-0.787-6.485c-10.368,0-20.625,0-31.229,0c0-2.226,0-3.93,0-6.061c10.381,0,20.645,0,31.264,0
		c0-3.144,0-5.884,0-8.875c2.745,0,5.285,0,8.101,0c-0.381,3.024-0.705,5.592-1.076,8.531c8.772,0,17.185,0,25.947,0
		c0-2.767,0-5.494,0-8.802c2.468,0.118,4.979,0.238,7.683,0.367c-0.2,3.105-0.366,5.675-0.558,8.654c10.873,0,21.315,0,32.148,0
		c0,2.069,0,3.761,0,5.989c-10.594,0-21.025,0-31.76,0c-0.192,2.413-0.345,4.333-0.529,6.643c-2.032,0-4.079,0-6.487,0
		C181.876,20.56,181.722,18.634,181.523,16.156z"/>
	<path d="M10.535,428.442c2.578-5.657,5.157-11.313,7.889-17.307c3.002,2.583,4.063,5.009,2.506,8.979
		c-2.822,7.192-4.78,14.721-7.527,21.947c-0.502,1.319-2.982,2.377-4.664,2.573c-1.015,0.119-3.036-1.496-3.262-2.606
		c-1.687-8.288-3.673-16.591-4.364-24.989c-1.489-18.09,1.971-35.809,5.278-53.493c0.486-2.597,0.738-5.238,1.161-8.321
		c1.728,0.559,3.268,1.007,4.772,1.553c3.65,1.323,4.642,2.655,3.015,7.263c-5.12,14.496-7.125,29.734-7.312,45.115
		c-0.077,6.37,0.655,12.749,1.02,19.124C9.543,428.334,10.039,428.388,10.535,428.442z"/>
	<path d="M40.13,414.961c2.835,10.194,7.022,13.849,17.402,14.144c7.949,0.226,15.924-0.443,23.887-0.729
		c1.941-0.07,3.881-0.197,6.179-0.317c0,2.744,0,4.995,0,7.975c-13.766,1.151-27.607,3.209-41.244-1.125
		c-8.35-2.654-12.226-8.911-12.453-19.058C35.932,415.561,38.058,415.257,40.13,414.961z"/>
	<path d="M38.428,376.112c-1.299-6.641-0.925-7.516,5.96-7.907c11.077-0.629,22.179-0.955,33.274-1.103
		c6.346-0.085,6.799,0.832,5.311,7.373C68.128,375.021,53.318,375.565,38.428,376.112z"/>
	<path d="M327.345,388.17c-8.565-4.321-16.678-8.414-24.834-12.529c2.186-6.4,2.542-6.723,8.856-4.189
		c4.922,1.975,9.767,4.228,14.415,6.78C332.316,381.82,332.294,382.522,327.345,388.17z"/>
	<path d="M421.505,374.104c2.488-3.368,5.114-3.626,8.032-0.303c3.587,4.085,7.287,8.072,11.247,12.444
		c-2.176,1.761-3.654,2.956-5.065,4.097C430.817,384.742,426.25,379.525,421.505,374.104z"/>
	<path d="M431.969,366.096c1.993-3.069,4.323-3.818,7.294-0.601c2.581,2.795,5.5,5.287,7.996,8.152
		c3.855,4.425,3.736,4.615-1.338,7.933C441.291,376.442,436.674,371.318,431.969,366.096z"/>
	<path class="st0" d="M183.617,31.81c6.096,0,11.354,0,16.963,0c0,3.621,0,7.009,0,10.79c-5.539,0-11.07,0-16.963,0
		C183.617,39.071,183.617,35.542,183.617,31.81z"/>
	<path class="st0" d="M176.339,31.932c0,3.8,0,7.19,0,10.801c-5.544,0-10.754,0-16.228,0c0-3.645,0-7.04,0-10.801
		C165.425,31.932,170.623,31.932,176.339,31.932z"/>
	<path class="st0" d="M137.114,42.647c0-3.727,0-7.13,0-11.078c2.037,0,3.811,0,5.586,0c3.272,0,6.545,0,10.081,0
		c0,3.927,0,7.33,0,11.078C147.67,42.647,142.624,42.647,137.114,42.647z"/>
	<path class="st0" d="M280.831,440.972c-0.646-0.127-3.179,0.054-4.741-1.091c-2.179-1.597-4.865-4.084-5.049-6.374
		c-0.182-2.262,1.907-5.815,4-6.942c6.148-3.308,12.891-2.238,19.355-0.437c0.872,0.243,1.73,2.264,1.767,3.486
		C296.377,436.778,291.096,441.03,280.831,440.972z"/>
</g>
</svg>
